<?xml version="1.0" encoding="utf-8"?>
<!-- Generator: Adobe Illustrator 24.1.2, SVG Export Plug-In . SVG Version: 6.00 Build 0)  -->
<svg version="1.1" id="圖層_1" focusable="false" xmlns="http://www.w3.org/2000/svg" xmlns:xlink="http://www.w3.org/1999/xlink"
	 x="0px" y="0px" viewBox="0 0 640 512" style="enable-background:new 0 0 640 512;" xml:space="preserve">
<style type="text/css">
	.st0{fill:#225243;}
</style>
<path class="st0" d="M525.8,49.2h-15.1c-13.5-17.8-34.7-29.6-58.8-29.6c-40.8,0-73.9,33.1-73.9,73.9v19.4L34.7,383
	c-7,5.3-11.2,13.5-11.2,22.3c0,20.7,21.8,34.2,40.4,25l112.2-56.1h89.1l41,110.9c2.1,5.8,8.4,8.7,14.2,6.6l20.8-7.6
	c5.8-2.1,8.7-8.4,6.6-14.2l-35.4-95.7h36.1c1.8,0,3.5-0.2,5.2-0.3l41.1,111.2c2.1,5.8,8.4,8.7,14.2,6.6l20.8-7.6
	c5.8-2.1,8.7-8.4,6.6-14.2l-38.1-103c73.6-21.6,127.4-89.5,127.4-170V123l88.7-14.8C614.5,75.6,574.8,49.2,525.8,49.2z M452,115.6
	c-12.2,0-22.2-9.9-22.2-22.2c0-12.2,9.9-22.2,22.2-22.2c12.2,0,22.2,9.9,22.2,22.2C474.1,105.7,464.2,115.6,452,115.6z"/>
</svg>
