<?xml version="1.0" encoding="utf-8"?>
<svg xmlns="http://www.w3.org/2000/svg" xmlns:xlink="http://www.w3.org/1999/xlink" style="margin: auto; background: none; display: block; shape-rendering: auto;" width="212px" height="212px" viewBox="0 0 100 100" preserveAspectRatio="xMidYMid">
<g transform="rotate(0 50 50)">
  <rect x="45.5" y="22" rx="4.5" ry="12" width="9" height="24" fill="#7fbb42">
    <animate attributeName="opacity" values="1;0" keyTimes="0;1" dur="0.7352941176470588s" begin="-0.6893382352941176s" repeatCount="indefinite"></animate>
  </rect>
</g><g transform="rotate(22.5 50 50)">
  <rect x="45.5" y="22" rx="4.5" ry="12" width="9" height="24" fill="#7fbb42">
    <animate attributeName="opacity" values="1;0" keyTimes="0;1" dur="0.7352941176470588s" begin="-0.6433823529411764s" repeatCount="indefinite"></animate>
  </rect>
</g><g transform="rotate(45 50 50)">
  <rect x="45.5" y="22" rx="4.5" ry="12" width="9" height="24" fill="#7fbb42">
    <animate attributeName="opacity" values="1;0" keyTimes="0;1" dur="0.7352941176470588s" begin="-0.5974264705882353s" repeatCount="indefinite"></animate>
  </rect>
</g><g transform="rotate(67.5 50 50)">
  <rect x="45.5" y="22" rx="4.5" ry="12" width="9" height="24" fill="#7fbb42">
    <animate attributeName="opacity" values="1;0" keyTimes="0;1" dur="0.7352941176470588s" begin="-0.551470588235294s" repeatCount="indefinite"></animate>
  </rect>
</g><g transform="rotate(90 50 50)">
  <rect x="45.5" y="22" rx="4.5" ry="12" width="9" height="24" fill="#7fbb42">
    <animate attributeName="opacity" values="1;0" keyTimes="0;1" dur="0.7352941176470588s" begin="-0.5055147058823529s" repeatCount="indefinite"></animate>
  </rect>
</g><g transform="rotate(112.5 50 50)">
  <rect x="45.5" y="22" rx="4.5" ry="12" width="9" height="24" fill="#7fbb42">
    <animate attributeName="opacity" values="1;0" keyTimes="0;1" dur="0.7352941176470588s" begin="-0.45955882352941174s" repeatCount="indefinite"></animate>
  </rect>
</g><g transform="rotate(135 50 50)">
  <rect x="45.5" y="22" rx="4.5" ry="12" width="9" height="24" fill="#7fbb42">
    <animate attributeName="opacity" values="1;0" keyTimes="0;1" dur="0.7352941176470588s" begin="-0.41360294117647056s" repeatCount="indefinite"></animate>
  </rect>
</g><g transform="rotate(157.5 50 50)">
  <rect x="45.5" y="22" rx="4.5" ry="12" width="9" height="24" fill="#7fbb42">
    <animate attributeName="opacity" values="1;0" keyTimes="0;1" dur="0.7352941176470588s" begin="-0.3676470588235294s" repeatCount="indefinite"></animate>
  </rect>
</g><g transform="rotate(180 50 50)">
  <rect x="45.5" y="22" rx="4.5" ry="12" width="9" height="24" fill="#7fbb42">
    <animate attributeName="opacity" values="1;0" keyTimes="0;1" dur="0.7352941176470588s" begin="-0.3216911764705882s" repeatCount="indefinite"></animate>
  </rect>
</g><g transform="rotate(202.5 50 50)">
  <rect x="45.5" y="22" rx="4.5" ry="12" width="9" height="24" fill="#7fbb42">
    <animate attributeName="opacity" values="1;0" keyTimes="0;1" dur="0.7352941176470588s" begin="-0.275735294117647s" repeatCount="indefinite"></animate>
  </rect>
</g><g transform="rotate(225 50 50)">
  <rect x="45.5" y="22" rx="4.5" ry="12" width="9" height="24" fill="#7fbb42">
    <animate attributeName="opacity" values="1;0" keyTimes="0;1" dur="0.7352941176470588s" begin="-0.22977941176470587s" repeatCount="indefinite"></animate>
  </rect>
</g><g transform="rotate(247.5 50 50)">
  <rect x="45.5" y="22" rx="4.5" ry="12" width="9" height="24" fill="#7fbb42">
    <animate attributeName="opacity" values="1;0" keyTimes="0;1" dur="0.7352941176470588s" begin="-0.1838235294117647s" repeatCount="indefinite"></animate>
  </rect>
</g><g transform="rotate(270 50 50)">
  <rect x="45.5" y="22" rx="4.5" ry="12" width="9" height="24" fill="#7fbb42">
    <animate attributeName="opacity" values="1;0" keyTimes="0;1" dur="0.7352941176470588s" begin="-0.1378676470588235s" repeatCount="indefinite"></animate>
  </rect>
</g><g transform="rotate(292.5 50 50)">
  <rect x="45.5" y="22" rx="4.5" ry="12" width="9" height="24" fill="#7fbb42">
    <animate attributeName="opacity" values="1;0" keyTimes="0;1" dur="0.7352941176470588s" begin="-0.09191176470588235s" repeatCount="indefinite"></animate>
  </rect>
</g><g transform="rotate(315 50 50)">
  <rect x="45.5" y="22" rx="4.5" ry="12" width="9" height="24" fill="#7fbb42">
    <animate attributeName="opacity" values="1;0" keyTimes="0;1" dur="0.7352941176470588s" begin="-0.04595588235294117s" repeatCount="indefinite"></animate>
  </rect>
</g><g transform="rotate(337.5 50 50)">
  <rect x="45.5" y="22" rx="4.5" ry="12" width="9" height="24" fill="#7fbb42">
    <animate attributeName="opacity" values="1;0" keyTimes="0;1" dur="0.7352941176470588s" begin="0s" repeatCount="indefinite"></animate>
  </rect>
</g>
<!-- [ldio] generated by https://loading.io/ --></svg>