<?xml version="1.0" encoding="utf-8"?>
<svg xmlns="http://www.w3.org/2000/svg" xmlns:xlink="http://www.w3.org/1999/xlink" style="margin: auto; background: none; display: block; shape-rendering: auto;" width="470px" height="470px" viewBox="0 0 100 100" preserveAspectRatio="xMidYMid">
<g transform="translate(50 50)">
<g>
<animateTransform attributeName="transform" type="rotate" values="0;40" keyTimes="0;1" dur="0.3115264797507788s" repeatCount="indefinite"></animateTransform><path d="M2.397915761656361 -5.5 L10.39791576165636 -5.5 L10.39791576165636 5.5 L2.397915761656361 5.5 A6 6 0 0 1 5.372241897560233 -2.6718938964896095 L5.372241897560233 -2.6718938964896095 L11.500597442512056 2.4704069810027045 L4.429933735960125 10.896895855311463 L-1.6984218089916994 5.754594977819148 A6 6 0 0 1 5.832836343777581 1.406421055981241 L5.832836343777581 1.406421055981241 L7.222021765113025 9.284883080078906 L-3.6108635180212634 11.195013034415139 L-5.000048939356708 3.3165510103174745 A6 6 0 0 1 3.564181839986233 4.826655965729518 L3.564181839986233 4.826655965729518 L-0.4358181600137656 11.754859196005029 L-9.962097601642592 6.2548591960050315 L-5.962097601642593 -0.6733440342704788 A6 6 0 0 1 -0.3721929582035245 5.988444906807084 L-0.3721929582035245 5.988444906807084 L-7.889733924490791 8.724606053412433 L-11.651955501073148 -1.6120127752325564 L-4.134414534785882 -4.3481739218379065 A6 6 0 0 1 -4.134414534785881 4.3481739218379065 L-4.134414534785881 4.3481739218379065 L-11.651955501073148 1.612012775232555 L-7.889733924490791 -8.724606053412435 L-0.3721929582035233 -5.988444906807084 A6 6 0 0 1 -5.962097601642592 0.6733440342704828 L-5.962097601642592 0.6733440342704828 L-9.962097601642594 -6.254859196005026 L-0.43581816001377316 -11.75485919600503 L3.5641818399862295 -4.826655965729522 A6 6 0 0 1 -5.0000489393567085 -3.316551010317473 L-5.0000489393567085 -3.316551010317473 L-3.610863518021268 -11.195013034415137 L7.222021765113021 -9.284883080078908 L5.83283634377758 -1.4064210559812436 A6 6 0 0 1 -1.6984218089917007 -5.754594977819147 L-1.6984218089917007 -5.754594977819147 L4.429933735960121 -10.896895855311463 L11.500597442512056 -2.470406981002708 L5.372241897560234 2.6718938964896077 A6 6 0 0 1 2.3979157616563596 -5.5 M0 -11A11 11 0 1 0 0 11 A11 11 0 1 0 0 -11" fill="#225243b8"></path></g></g>
<!-- [ldio] generated by https://loading.io/ --></svg>